<svg width="26" height="26" viewBox="0 0 24.00 24.00" fill="none" xmlns="http://www.w3.org/2000/svg" stroke="#787878"><g id="SVGRepo_bgCarrier" stroke-width="0"></g><g id="SVGRepo_tracerCarrier" stroke-linecap="round" stroke-linejoin="round"></g><g id="SVGRepo_iconCarrier"> <path d="M21 12V8C21 5.79086 19.2091 4 17 4H7C4.79086 4 3 5.79086 3 8V17C3 19.2091 4.79086 21 7 21H12" stroke="#787878" stroke-width="1.656" stroke-linecap="round"></path> <path d="M8 3V6" stroke="#787878" stroke-width="1.656" stroke-linecap="round"></path> <path d="M17 10H7" stroke="#787878" stroke-width="1.656" stroke-linecap="round"></path> <path d="M16 3V6" stroke="#787878" stroke-width="1.656" stroke-linecap="round"></path> <path d="M21 18C21 19.6569 19.6569 21 18 21C16.3431 21 15 19.6569 15 18C15 16.3431 16.3431 15 18 15C19.6569 15 21 16.3431 21 18Z" stroke="#787878" stroke-width="1.656"></path> </g></svg>