<?xml version="1.0" standalone="no"?>
<!DOCTYPE svg PUBLIC "-//W3C//DTD SVG 20010904//EN"
 "http://www.w3.org/TR/2001/REC-SVG-20010904/DTD/svg10.dtd">
<svg version="1.0" xmlns="http://www.w3.org/2000/svg"
 width="700.000000pt" height="700.000000pt" viewBox="0 0 700.000000 700.000000"
 preserveAspectRatio="xMidYMid meet">
<metadata>
Created by potrace 1.14, written by Peter Selinger 2001-2017
</metadata>
<g transform="translate(0.000000,700.000000) scale(0.100000,-0.100000)"
fill="#000000" stroke="none">
<path d="M3285 5969 c-410 -42 -818 -210 -1136 -467 -178 -143 -375 -369 -493
-563 -154 -255 -261 -569 -297 -874 -25 -215 0 -550 60 -782 188 -732 781
-1331 1514 -1528 324 -88 682 -98 1006 -30 546 116 1028 441 1343 905 250 370
382 821 365 1250 -13 330 -79 600 -212 878 -285 592 -826 1024 -1461 1167
-220 50 -476 66 -689 44z m490 -175 c429 -58 814 -251 1126 -563 130 -131 212
-235 303 -385 306 -504 366 -1151 159 -1706 -179 -480 -541 -876 -1004 -1100
-667 -322 -1446 -246 -2049 199 -100 74 -287 257 -365 356 -221 283 -354 590
-411 946 -25 156 -22 448 5 604 79 446 271 811 588 1116 438 422 1037 616
1648 533z"/>
<path d="M2630 3841 l0 -1088 77 -7 c42 -3 152 -6 245 -6 l168 0 0 455 0 455
23 5 c12 3 180 4 372 3 l350 -3 3 -451 2 -451 77 -7 c42 -3 154 -6 250 -6
l173 0 0 1095 0 1095 -247 -2 -248 -3 -3 -418 -2 -417 -373 2 -372 3 -3 418
-2 417 -245 0 -245 0 0 -1089z"/>
<path d="M2230 1185 l0 -165 40 0 39 0 3 63 3 62 53 3 52 3 0 -65 0 -66 45 0
45 0 0 166 0 165 -42 -3 -43 -3 -3 -58 -3 -58 -52 3 -52 3 -3 58 -3 57 -39 0
-40 0 0 -165z"/>
<path d="M2830 1213 c0 -176 5 -188 80 -188 54 0 55 0 58 32 3 26 -1 32 -20
35 -22 3 -23 6 -26 131 l-3 127 -44 0 -45 0 0 -137z"/>
<path d="M2614 1250 c-48 -24 -64 -53 -64 -116 0 -39 5 -51 34 -80 30 -30 40
-34 85 -34 52 0 111 22 111 40 0 6 0 13 0 18 -1 13 -53 22 -66 11 -16 -13 -66
-8 -71 8 -3 9 19 13 79 15 l83 3 -3 33 c-4 54 -27 88 -72 106 -52 21 -66 20
-116 -4z m94 -67 c2 -9 -8 -13 -32 -13 -34 0 -44 8 -29 24 11 11 56 2 61 -11z"/>
<path d="M3105 1253 c-20 -11 -30 -12 -33 -4 -2 6 -19 11 -38 11 l-34 0 0
-171 0 -170 43 3 42 3 5 57 c4 48 7 56 20 48 20 -13 77 -13 101 0 46 25 64
122 33 181 -14 28 -66 60 -96 59 -7 -1 -26 -8 -43 -17z m67 -88 c9 -19 8 -29
-6 -50 -30 -45 -76 -27 -76 30 0 39 6 45 42 45 21 0 32 -7 40 -25z"/>
<path d="M3363 1259 c-62 -18 -96 -94 -73 -164 16 -49 60 -75 127 -75 44 0 58
5 85 28 l31 29 -32 11 c-22 8 -39 8 -51 2 -27 -14 -56 -12 -70 5 -11 13 -2 15
75 15 l88 0 -6 45 c-5 52 -27 82 -74 101 -36 16 -54 16 -100 3z m81 -74 c4
-12 -3 -15 -36 -15 -35 0 -39 2 -28 15 7 8 23 15 35 15 13 0 25 -7 29 -15z"/>
<path d="M3695 1258 c-11 -6 -26 -18 -32 -26 -11 -14 -13 -13 -13 6 0 19 -6
22 -40 22 l-40 0 0 -120 0 -120 45 0 44 0 3 78 3 77 33 10 c29 8 32 13 32 47
0 41 -4 44 -35 26z"/>
<path d="M3924 1256 c-50 -22 -74 -61 -74 -118 0 -43 4 -54 34 -84 31 -31 40
-34 90 -34 47 0 60 4 88 29 l33 30 -29 11 c-17 6 -48 8 -72 4 -40 -6 -44 -4
-55 20 -10 20 -10 32 0 52 10 24 16 26 50 20 47 -7 102 10 95 29 -16 40 -109
64 -160 41z"/>
<path d="M4174 1251 c-23 -10 -44 -27 -49 -37 -30 -76 -22 -128 26 -168 43
-37 125 -37 168 -1 74 63 59 174 -30 209 -50 20 -65 20 -115 -3z m98 -86 c16
-36 -3 -75 -37 -75 -34 0 -53 39 -37 75 8 17 20 25 37 25 17 0 29 -8 37 -25z"/>
<path d="M4507 1251 c-29 -15 -37 -16 -37 -5 0 9 -12 14 -35 14 l-35 0 0 -120
0 -120 40 0 40 0 0 69 c0 70 14 101 45 101 19 0 25 -24 25 -101 l0 -69 40 0
40 0 0 66 c0 73 12 104 39 104 25 0 31 -19 31 -101 l0 -69 40 0 40 0 0 100 c0
95 -2 102 -26 127 -20 20 -31 24 -57 19 -17 -3 -39 -13 -48 -22 -17 -15 -20
-15 -45 5 -33 26 -49 26 -97 2z"/>
<path d="M3740 1065 c0 -45 0 -45 35 -45 35 0 35 0 35 45 0 45 0 45 -35 45
-35 0 -35 0 -35 -45z"/>
</g>
</svg>
